<mxfile host="app.diagrams.net" modified="2021-02-07T08:42:25.141Z" agent="5.0 (Windows NT 10.0; WOW64) AppleWebKit/537.36 (KHTML, like Gecko) Chrome/86.0.4240.198 Safari/537.36" etag="aQk_SAbH35axrcuSRYku" version="14.2.9" type="github" pages="2">
  <diagram name="Page-1" id="8378b5f6-a2b2-b727-a746-972ab9d02e00">
    <mxGraphModel dx="1422" dy="750" grid="1" gridSize="10" guides="1" tooltips="1" connect="0" arrows="1" fold="1" page="1" pageScale="1.5" pageWidth="1169" pageHeight="827" background="#ffffff" math="0" shadow="0">
      <root>
        <mxCell id="0" />
        <mxCell id="1" parent="0" />
      </root>
    </mxGraphModel>
  </diagram>
  <diagram id="fbegfg0s5ALRYF_lM8aU" name="第 2 页">
    <mxGraphModel dx="1422" dy="750" grid="1" gridSize="10" guides="1" tooltips="1" connect="1" arrows="1" fold="1" page="1" pageScale="1" pageWidth="827" pageHeight="1169" math="0" shadow="0">
      <root>
        <mxCell id="CwJCLXHhqTanfXo_TPwe-0" />
        <mxCell id="CwJCLXHhqTanfXo_TPwe-1" parent="CwJCLXHhqTanfXo_TPwe-0" />
      </root>
    </mxGraphModel>
  </diagram>
</mxfile>
